<svg xmlns="http://www.w3.org/2000/svg" viewBox="0 0 1600 1000" role="img" aria-label="">
  <defs>
    <linearGradient id="bg" x1="0" y1="0" x2="1" y2="1">
      <stop offset="0" stop-color="#3b2730"/><stop offset=".52" stop-color="#b07d16"/><stop offset="1" stop-color="#f3ddaa"/>
    </linearGradient>
  </defs>
  <rect width="1600" height="1000" fill="url(#bg)"/>
  <g fill="#fff8e8" opacity=".78">
    <path d="M360 250 C520 190 650 230 780 320 V760 C650 670 520 650 360 710Z"/>
    <path d="M820 320 C950 230 1080 190 1240 250 V710 C1080 650 950 670 820 760Z" opacity=".88"/>
  </g>
  <g fill="none" stroke="#3b2730" stroke-width="8" opacity=".24" stroke-linecap="round">
    <path d="M440 360 C540 330 620 350 710 400"/>
    <path d="M440 450 C540 420 620 440 710 490"/>
    <path d="M910 400 C1000 350 1090 330 1180 360"/>
    <path d="M910 490 C1000 440 1090 420 1180 450"/>
  </g>
  <g fill="#fff8e8" opacity=".2">
    <circle cx="220" cy="760" r="190"/><circle cx="1390" cy="220" r="160"/>
  </g>
</svg>
